<?xml version="1.0" encoding="iso-8859-1"?>
<!-- Generator: Adobe Illustrator 18.1.1, SVG Export Plug-In . SVG Version: 6.00 Build 0)  -->
<svg version="1.1" id="Capa_1" xmlns="http://www.w3.org/2000/svg" xmlns:xlink="http://www.w3.org/1999/xlink" x="0px" y="0px"
	 viewBox="0 0 349.046 349.046" style="enable-background:new 0 0 349.046 349.046; fill:#155EA9;" xml:space="preserve">
	<g id="Layer_5_78_">
		<path d="M344.046,298.535c0,0-3.254,0-4.338,0c-2.375,0-2.375-2.811-2.375-2.811V99.094c0-4.95-4.051-9-9-9c0,0-52.219,0-69.625,0
			c-2.5,0-2.367-2.37-2.367-2.37V49.818c0-0.375,0.211-0.796,1.455-0.796c2.75,0,5-2.25,5-5v-8.881c0-2.75-2.25-5-5-5H96.13
			c-2.75,0-5,2.25-5,5v8.881c0,2.75,2.25,5,5,5c1.453,0,1.456,1.302,1.456,1.453V86.85c0,0,0.247,3.245-1.878,3.245
			c-18.799,0-75.193,0-75.193,0c-4.95,0-9,4.05-9,9c0,0,0,147.941,0,197.255c0,1.875-1.016,2.186-3.068,2.186
			c-2.654,0-3.447,0-3.447,0c-2.75,0-5,2.25-5,5v10.369c0,2.75,2.25,5,5,5h339.046c2.75,0,5-2.25,5-5v-10.369
			C349.046,300.785,346.796,298.535,344.046,298.535z M196.075,133.209h29.924c2.201,0,4,1.8,4,4v29.925c0,2.2-1.799,4-4,4h-29.924
			c-2.201,0-4-1.8-4-4v-29.925C192.075,135.009,193.874,133.209,196.075,133.209z M192.075,114.647V84.722c0-2.2,1.799-4,4-4h29.924
			c2.201,0,4,1.8,4,4v29.925c0,2.2-1.799,4-4,4h-29.924C193.874,118.647,192.075,116.847,192.075,114.647z M196.075,183.846h29.924
			c2.201,0,4,1.8,4,4v29.925c0,2.2-1.799,4-4,4h-29.924c-2.201,0-4-1.8-4-4v-29.925
			C192.075,185.647,193.874,183.846,196.075,183.846z M200.516,244.008c2.199,0,4,1.8,4,4v46.335c0,2.2-1.801,4-4,4h-46.335
			c-2.199,0-4-1.8-4-4v-46.335c0-2.2,1.801-4,4-4H200.516z M161.903,114.647c0,2.2-1.8,4-4,4h-29.925c-2.2,0-4-1.8-4-4V84.722
			c0-2.2,1.8-4,4-4h29.925c2.2,0,4,1.8,4,4V114.647z M127.978,133.209h29.925c2.2,0,4,1.8,4,4v29.925c0,2.2-1.8,4-4,4h-29.925
			c-2.2,0-4-1.8-4-4v-29.925C123.978,135.009,125.778,133.209,127.978,133.209z M127.978,183.846h29.925c2.2,0,4,1.8,4,4v29.925
			c0,2.2-1.8,4-4,4h-29.925c-2.2,0-4-1.8-4-4v-29.925C123.978,185.647,125.778,183.846,127.978,183.846z M268.122,136.284
			c0-2.2,1.801-4,4-4h29.926c2.199,0,4,1.8,4,4v29.925c0,2.2-1.801,4-4,4h-29.926c-2.199,0-4-1.8-4-4V136.284z M268.122,188.772
			c0-2.2,1.801-4,4-4h29.926c2.199,0,4,1.8,4,4v29.925c0,2.2-1.801,4-4,4h-29.926c-2.199,0-4-1.8-4-4V188.772z M268.122,239.408
			c0-2.2,1.801-4,4-4h29.926c2.199,0,4,1.8,4,4v29.925c0,2.2-1.801,4-4,4h-29.926c-2.199,0-4-1.8-4-4V239.408z M42.8,136.284
			c0-2.2,1.8-4,4-4h29.925c2.2,0,4,1.8,4,4v29.925c0,2.2-1.8,4-4,4H46.8c-2.2,0-4-1.8-4-4V136.284z M42.8,188.772c0-2.2,1.8-4,4-4
			h29.925c2.2,0,4,1.8,4,4v29.925c0,2.2-1.8,4-4,4H46.8c-2.2,0-4-1.8-4-4V188.772z M42.8,239.408c0-2.2,1.8-4,4-4h29.925
			c2.2,0,4,1.8,4,4v29.925c0,2.2-1.8,4-4,4H46.8c-2.2,0-4-1.8-4-4V239.408z"/>
	</g>
</svg>
